<svg xmlns="http://www.w3.org/2000/svg" viewBox="0 0 429.28 302.96"><defs><style>.cls-1,.cls-2{fill:none;}.cls-2{stroke:#fced5f;stroke-width:1.09px;}.cls-3{fill:#fced5f;}.cls-4{fill:#040505;}.cls-5{fill:#fff;}</style></defs><g id="Calque_2" data-name="Calque 2"><g id="Calque_1-2" data-name="Calque 1"><g id="Groupe_10" data-name="Groupe 10"><g id="Ellipse_4" data-name="Ellipse 4"><circle id="Ellipse_12" data-name="Ellipse 12" class="cls-1" cx="254.93" cy="201.66" r="101.18"/><circle id="Ellipse_13" data-name="Ellipse 13" class="cls-2" cx="254.93" cy="201.66" r="100.75"/></g></g><g id="Groupe_7" data-name="Groupe 7"><circle id="Ellipse_4-2" data-name="Ellipse 4-2" class="cls-3" cx="254.93" cy="121.05" r="121.05"/><g id="Ellipse_6" data-name="Ellipse 6"><circle id="Ellipse_14" data-name="Ellipse 14" class="cls-4" cx="299.49" cy="198.25" r="56.46"/><circle id="Ellipse_15" data-name="Ellipse 15" class="cls-2" cx="299.49" cy="198.25" r="56.03"/></g></g><g id="LAUSANNE"><g id="Groupe_13" data-name="Groupe 13"><path id="Tracé_166" data-name="Tracé 166" class="cls-4" d="M264.67,94.44v-35h4.88V90.94h8.94v3.5Z"/><path id="Tracé_167" data-name="Tracé 167" class="cls-4" d="M280.18,94.44l7.43-35h4.71l7.47,35h-4.62l-1.6-8.81h-7.13l-1.69,8.81Zm6.91-12.31h5.83L290,66.36Z"/><path id="Tracé_168" data-name="Tracé 168" class="cls-4" d="M312.62,94.83a9.62,9.62,0,0,1-5.83-1.51A7.52,7.52,0,0,1,304,89.07a24.74,24.74,0,0,1-.73-6.41V59.46H308V82.87a25.55,25.55,0,0,0,.3,4.1,5.42,5.42,0,0,0,1.32,2.94,4.87,4.87,0,0,0,6.12,0A5.62,5.62,0,0,0,317,87a25.63,25.63,0,0,0,.3-4.1V59.46h4.62V82.65a25.13,25.13,0,0,1-.73,6.41,7.59,7.59,0,0,1-2.74,4.25A9.64,9.64,0,0,1,312.62,94.83Z"/><path id="Tracé_169" data-name="Tracé 169" class="cls-4" d="M335.55,94.83a9,9,0,0,1-5-1.3,8.26,8.26,0,0,1-3-3.59,14.73,14.73,0,0,1-1.21-5.31l4.32-1.17a19.9,19.9,0,0,0,.58,3.59,6.4,6.4,0,0,0,1.49,2.83,3.8,3.8,0,0,0,2.89,1.1,3.69,3.69,0,0,0,2.87-1.06,4.31,4.31,0,0,0,1-3,6.18,6.18,0,0,0-1.08-3.82,20.33,20.33,0,0,0-2.72-2.92l-5.87-5.19a9.9,9.9,0,0,1-2.55-3.3,10.51,10.51,0,0,1-.82-4.43,7.87,7.87,0,0,1,2.2-6,8.31,8.31,0,0,1,6-2.12,11.3,11.3,0,0,1,3.65.54,6.38,6.38,0,0,1,2.63,1.66,8.06,8.06,0,0,1,1.68,2.83,16,16,0,0,1,.84,4l-4.15,1.12a17,17,0,0,0-.52-3.17,4.77,4.77,0,0,0-1.36-2.33,4,4,0,0,0-2.78-.89,4,4,0,0,0-2.83,1,3.85,3.85,0,0,0-1,2.87,5.67,5.67,0,0,0,.54,2.63A7.75,7.75,0,0,0,333,71.48l5.92,5.18a18.4,18.4,0,0,1,3.49,4.13,10.42,10.42,0,0,1,1.51,5.68,8.83,8.83,0,0,1-1.08,4.47,7.3,7.3,0,0,1-3,2.87A8.62,8.62,0,0,1,335.55,94.83Z"/><path id="Tracé_170" data-name="Tracé 170" class="cls-4" d="M346.09,94.44l7.43-35h4.71l7.47,35h-4.62l-1.6-8.81h-7.13l-1.68,8.81ZM353,82.13h5.83l-2.94-15.77Z"/></g><g id="Groupe_14" data-name="Groupe 14"><path id="Tracé_171" data-name="Tracé 171" class="cls-5" d="M369.5,94.45v-35h3.33l9.93,23.24V59.46h4.06v35h-3.11L373.65,70.56V94.45Z"/><path id="Tracé_172" data-name="Tracé 172" class="cls-5" d="M392.56,94.45v-35h3.33l9.93,23.24V59.46h4.06v35h-3.11L396.71,70.56V94.45Z"/><path id="Tracé_173" data-name="Tracé 173" class="cls-5" d="M415.63,94.45v-35h13.56v3.63h-8.68V74.67h7.05v3.46h-7.05V91h8.77v3.5H415.63Z"/></g></g><g id="Groupe_8" data-name="Groupe 8"><circle id="Ellipse_10" data-name="Ellipse 10" class="cls-3" cx="282.43" cy="206.48" r="18.33"/><circle id="Ellipse_11" data-name="Ellipse 11" class="cls-4" cx="282.43" cy="206.48" r="7.85"/></g><path class="cls-5" d="M0,141.14V105.76H7.12a15.58,15.58,0,0,1,5.85.94,6.56,6.56,0,0,1,3.43,3,11.53,11.53,0,0,1,1.11,5.44,14.85,14.85,0,0,1-.44,3.73,7.21,7.21,0,0,1-1.4,2.84,5.49,5.49,0,0,1-2.53,1.68l5,17.74H13.4l-4.63-16.6H4.93v16.6ZM4.94,121H6.82a9.33,9.33,0,0,0,3.41-.52,3.54,3.54,0,0,0,1.92-1.79,8.25,8.25,0,0,0,.61-3.54,7,7,0,0,0-1.14-4.48q-1.14-1.38-4.5-1.38H4.94Z"/><path class="cls-5" d="M22.67,141.14V105.76H36.39v3.67H27.61v11.71h7.12v3.49H27.61v13h8.87v3.54Z"/><path class="cls-5" d="M49.32,141.53A9.47,9.47,0,0,1,43.49,140a8.13,8.13,0,0,1-2.88-4.24,20.41,20.41,0,0,1-.81-5.94V117.29a21.59,21.59,0,0,1,.81-6.25,7.58,7.58,0,0,1,2.88-4.13,10,10,0,0,1,5.83-1.46,9.84,9.84,0,0,1,5.26,1.22,6.85,6.85,0,0,1,2.8,3.49,15.5,15.5,0,0,1,.85,5.46v2.79H53.56v-2.49a27.19,27.19,0,0,0-.2-3.47,3.82,3.82,0,0,0-1.07-2.34,4.2,4.2,0,0,0-2.93-.83,4.37,4.37,0,0,0-3.06.9,4.31,4.31,0,0,0-1.24,2.53,22.6,22.6,0,0,0-.28,3.82v14a16.25,16.25,0,0,0,.44,4.22A3.72,3.72,0,0,0,46.66,137a4.87,4.87,0,0,0,2.71.66,3.88,3.88,0,0,0,2.88-.9,4.25,4.25,0,0,0,1.09-2.47,26.3,26.3,0,0,0,.22-3.67V128h4.67v2.62a18.56,18.56,0,0,1-.79,5.7,7.22,7.22,0,0,1-2.71,3.84A9.05,9.05,0,0,1,49.32,141.53Z"/><path class="cls-5" d="M72,141.53a10.32,10.32,0,0,1-5.72-1.4,7.61,7.61,0,0,1-3.06-4,18.31,18.31,0,0,1-.92-6.09V116.63a17.12,17.12,0,0,1,.94-6,7.49,7.49,0,0,1,3.06-3.84,10.59,10.59,0,0,1,5.7-1.33,10.4,10.4,0,0,1,5.68,1.35,7.63,7.63,0,0,1,3,3.84,16.91,16.91,0,0,1,.94,6v13.46a17.52,17.52,0,0,1-.94,6,8,8,0,0,1-3,4A10,10,0,0,1,72,141.53Zm0-3.89a4.65,4.65,0,0,0,3-.81,4,4,0,0,0,1.35-2.27,15.09,15.09,0,0,0,.35-3.43V115.62a14.54,14.54,0,0,0-.35-3.39A3.73,3.73,0,0,0,75,110.05a4.86,4.86,0,0,0-3-.76,5,5,0,0,0-3,.76,3.8,3.8,0,0,0-1.38,2.18,14.54,14.54,0,0,0-.35,3.39v15.51a15.09,15.09,0,0,0,.35,3.43A3.9,3.9,0,0,0,69,136.83,4.69,4.69,0,0,0,72,137.64Z"/><path class="cls-5" d="M86.5,141.14V105.76h7.12a15.58,15.58,0,0,1,5.85.94,6.56,6.56,0,0,1,3.43,3,11.53,11.53,0,0,1,1.11,5.44,14.85,14.85,0,0,1-.44,3.73,7.21,7.21,0,0,1-1.4,2.84,5.49,5.49,0,0,1-2.53,1.68l5,17.74H99.9l-4.63-16.6H91.43v16.6ZM91.43,121h1.88a9.33,9.33,0,0,0,3.41-.52,3.54,3.54,0,0,0,1.92-1.79,8.25,8.25,0,0,0,.61-3.54,7,7,0,0,0-1.14-4.48q-1.14-1.38-4.5-1.38H91.43V121Z"/><path class="cls-5" d="M109.17,141.14V105.76h7.69a13.49,13.49,0,0,1,6.22,1.2,6.91,6.91,0,0,1,3.28,3.6,15.79,15.79,0,0,1,1,6v13a18,18,0,0,1-1,6.33,7.58,7.58,0,0,1-3.19,3.91,11.36,11.36,0,0,1-5.92,1.33h-8.08Zm4.93-3.54h2.8a5.58,5.58,0,0,0,3.84-1,4.76,4.76,0,0,0,1.38-3.06,41.78,41.78,0,0,0,.24-4.85V117.16a23.31,23.31,0,0,0-.35-4.46,3.69,3.69,0,0,0-1.53-2.49,6.87,6.87,0,0,0-3.71-.79h-2.66V137.6Z"/><path d="M150.54,141.53a9.25,9.25,0,0,1-5.09-1.31,8.25,8.25,0,0,1-3.08-3.63,14.83,14.83,0,0,1-1.22-5.37l4.37-1.18a19.64,19.64,0,0,0,.59,3.63,6.48,6.48,0,0,0,1.51,2.86,3.83,3.83,0,0,0,2.93,1.11,3.74,3.74,0,0,0,2.9-1.07,4.41,4.41,0,0,0,1-3.08,6.32,6.32,0,0,0-1.09-3.87,20.55,20.55,0,0,0-2.75-3l-5.94-5.24a10,10,0,0,1-2.58-3.34,10.8,10.8,0,0,1-.83-4.48,8,8,0,0,1,2.23-6,8.38,8.38,0,0,1,6.07-2.14,11.19,11.19,0,0,1,3.69.55,6.38,6.38,0,0,1,2.66,1.68,8.3,8.3,0,0,1,1.7,2.86,16,16,0,0,1,.85,4l-4.19,1.14a17.94,17.94,0,0,0-.52-3.21,4.73,4.73,0,0,0-1.38-2.36,4,4,0,0,0-2.82-.9,4,4,0,0,0-2.86,1,3.86,3.86,0,0,0-1,2.91,5.62,5.62,0,0,0,.55,2.66,7.67,7.67,0,0,0,1.77,2.14l6,5.24a19,19,0,0,1,3.54,4.17,10.54,10.54,0,0,1,1.53,5.74,8.9,8.9,0,0,1-1.09,4.52,7.41,7.41,0,0,1-3,2.91A9,9,0,0,1,150.54,141.53Z"/><path d="M166.74,141.14V109.43h-6v-3.67h16.73v3.67h-5.81v31.71Z"/><path d="M189.94,141.53a10.32,10.32,0,0,1-5.72-1.4,7.61,7.61,0,0,1-3.06-4,18.31,18.31,0,0,1-.92-6.09V116.63a17.12,17.12,0,0,1,.94-6,7.49,7.49,0,0,1,3.06-3.84,10.59,10.59,0,0,1,5.7-1.33,10.4,10.4,0,0,1,5.68,1.35,7.63,7.63,0,0,1,3,3.84,16.91,16.91,0,0,1,.94,6v13.46a17.52,17.52,0,0,1-.94,6,8,8,0,0,1-3,4A10,10,0,0,1,189.94,141.53Zm0-3.89a4.65,4.65,0,0,0,3-.81,4,4,0,0,0,1.35-2.27,15.09,15.09,0,0,0,.35-3.43V115.62a14.54,14.54,0,0,0-.35-3.39,3.73,3.73,0,0,0-1.35-2.18,4.86,4.86,0,0,0-3-.76,5,5,0,0,0-3,.76,3.8,3.8,0,0,0-1.38,2.18,14.54,14.54,0,0,0-.35,3.39v15.51a15.09,15.09,0,0,0,.35,3.43,3.9,3.9,0,0,0,1.38,2.27A4.67,4.67,0,0,0,189.94,137.64Z"/><path d="M204.44,141.14V105.76h7.12a15.58,15.58,0,0,1,5.85.94,6.56,6.56,0,0,1,3.43,3,11.53,11.53,0,0,1,1.11,5.44,14.85,14.85,0,0,1-.44,3.73,7.21,7.21,0,0,1-1.4,2.84,5.49,5.49,0,0,1-2.53,1.68l5,17.74h-4.76l-4.63-16.6h-3.84v16.6ZM209.38,121h1.88a9.33,9.33,0,0,0,3.41-.52,3.54,3.54,0,0,0,1.92-1.79,8.25,8.25,0,0,0,.61-3.54,7,7,0,0,0-1.14-4.48q-1.14-1.38-4.5-1.38h-2.18Z"/><path d="M227.11,141.14V105.76h13.72v3.67h-8.78v11.71h7.12v3.49h-7.12v13h8.87v3.54Z"/></g></g></svg>