<?xml version="1.0" encoding="utf-8"?>
<!-- Generator: Adobe Illustrator 23.0.4, SVG Export Plug-In . SVG Version: 6.00 Build 0)  -->
<svg version="1.1" id="Calque_1" xmlns="http://www.w3.org/2000/svg" xmlns:xlink="http://www.w3.org/1999/xlink" x="0px" y="0px"
	 viewBox="0 0 595.28 841.89" style="enable-background:new 0 0 595.28 841.89;" xml:space="preserve">
<style type="text/css">
	.st0{fill:none;}
	.st1{fill:none;stroke:#FCED5F;stroke-width:1.0921;}
	.st2{fill:#FCED5F;}
	.st3{fill:#040505;}
	.st4{fill:#FFFFFF;}
</style>
<g>
	<g id="Groupe_10" transform="translate(50.067 679.409)">
		<g id="Ellipse_4" transform="translate(0 0)">
			<circle id="Ellipse_12" class="st0" cx="268.81" cy="-218" r="101.18"/>
			<circle id="Ellipse_13" class="st1" cx="268.81" cy="-218" r="100.75"/>
		</g>
	</g>
	<g id="Groupe_7" transform="translate(13.68 495.384)">
		<circle id="Ellipse_4-2" class="st2" cx="305.2" cy="-114.59" r="121.05"/>
		<g id="Ellipse_6" transform="translate(199.894 259.655)">
			<circle id="Ellipse_14" class="st3" cx="149.87" cy="-297.05" r="56.46"/>
			<circle id="Ellipse_15" class="st1" cx="149.87" cy="-297.05" r="56.03"/>
		</g>
	</g>
	<g id="LAUSANNE" transform="translate(253.208 603.707)">
		<g id="Groupe_13" transform="translate(0)">
			<path id="Tracé_166" class="st3" d="M75.41-249.52v-34.99h4.88v31.49h8.94v3.5H75.41z"/>
			<path id="Tracé_167" class="st3" d="M90.92-249.52l7.43-34.99h4.71l7.47,34.99h-4.62l-1.6-8.81h-7.13l-1.69,8.81H90.92z
				 M97.83-261.83h5.83l-2.94-15.77L97.83-261.83z"/>
			<path id="Tracé_168" class="st3" d="M123.36-249.13c-2.53,0-4.48-0.5-5.83-1.51c-1.39-1.06-2.36-2.56-2.76-4.25
				c-0.52-2.1-0.77-4.25-0.73-6.41v-23.2h4.66v23.41c-0.01,1.37,0.09,2.75,0.3,4.1c0.13,1.09,0.59,2.11,1.32,2.94
				c0.82,0.77,1.92,1.17,3.05,1.08c1.38,0,2.41-0.36,3.07-1.08c0.71-0.83,1.16-1.85,1.3-2.94c0.21-1.36,0.31-2.73,0.3-4.1v-23.41
				h4.62v23.19c0.03,2.16-0.21,4.32-0.73,6.41c-0.4,1.69-1.37,3.19-2.74,4.25C127.83-249.64,125.89-249.13,123.36-249.13z"/>
			<path id="Tracé_169" class="st3" d="M146.29-249.13c-1.77,0.07-3.52-0.38-5.03-1.3c-1.34-0.87-2.4-2.12-3.05-3.59
				c-0.73-1.68-1.14-3.48-1.21-5.31l4.32-1.17c0.08,1.21,0.28,2.41,0.58,3.59c0.25,1.05,0.76,2.03,1.49,2.83
				c0.76,0.76,1.82,1.16,2.89,1.1c1.07,0.08,2.11-0.31,2.87-1.06c0.7-0.85,1.05-1.94,0.97-3.05c0.07-1.36-0.31-2.7-1.08-3.82
				c-0.81-1.06-1.72-2.04-2.72-2.92l-5.87-5.19c-1.08-0.91-1.94-2.03-2.55-3.3c-0.59-1.4-0.87-2.91-0.82-4.43
				c0-2.56,0.73-4.55,2.2-5.96s3.47-2.12,6-2.12c1.24-0.02,2.47,0.16,3.65,0.54c1,0.33,1.91,0.9,2.63,1.66
				c0.75,0.82,1.32,1.78,1.68,2.83c0.45,1.29,0.73,2.63,0.84,4l-4.15,1.12c-0.07-1.07-0.25-2.13-0.52-3.17
				c-0.22-0.89-0.69-1.7-1.36-2.33c-0.78-0.64-1.78-0.95-2.78-0.89c-1.03-0.06-2.05,0.29-2.83,0.97c-0.72,0.77-1.09,1.82-1.02,2.87
				c-0.03,0.91,0.15,1.81,0.54,2.63c0.45,0.8,1.04,1.52,1.75,2.12l5.92,5.18c1.36,1.2,2.54,2.59,3.49,4.13
				c1.04,1.71,1.56,3.68,1.51,5.68c0.04,1.56-0.33,3.1-1.08,4.47c-0.69,1.22-1.72,2.22-2.96,2.87
				C149.29-249.44,147.8-249.1,146.29-249.13z"/>
			<path id="Tracé_170" class="st3" d="M156.83-249.52l7.43-34.99h4.71l7.47,34.99h-4.62l-1.6-8.81h-7.13l-1.68,8.81H156.83z
				 M163.74-261.83h5.83l-2.94-15.77L163.74-261.83z"/>
		</g>
		<g id="Groupe_14" transform="translate(191.977 0.554)">
			<path id="Tracé_171" class="st4" d="M-11.73-250.07v-34.99h3.33l9.93,23.24v-23.24h4.06v34.99H2.48l-10.06-23.89v23.89H-11.73z"
				/>
			<path id="Tracé_172" class="st4" d="M11.33-250.07v-34.99h3.33l9.93,23.24v-23.24h4.06v34.99h-3.11l-10.06-23.89v23.89H11.33z"
				/>
			<path id="Tracé_173" class="st4" d="M34.4-250.07v-34.99h13.56v3.63h-8.68v11.58h7.04v3.46h-7.04v12.83h8.77v3.5H34.4z"/>
		</g>
	</g>
	<g id="Groupe_8" transform="translate(252.167 839.956)">
		<circle id="Ellipse_10" class="st2" cx="94.21" cy="-373.73" r="18.33"/>
		<circle id="Ellipse_11" class="st3" cx="94.21" cy="-373.73" r="7.85"/>
	</g>
	<g>
		<g>
			<path class="st4" d="M63.95,400.88V365.5h7.12c2.36,0,4.31,0.31,5.85,0.94c1.54,0.63,2.69,1.63,3.43,3.01
				c0.74,1.38,1.11,3.2,1.11,5.44c0,1.37-0.15,2.61-0.44,3.73c-0.29,1.12-0.76,2.07-1.4,2.84c-0.64,0.77-1.49,1.33-2.53,1.68
				l5.02,17.74h-4.76l-4.63-16.6h-3.84v16.6H63.95z M68.89,380.74h1.88c1.4,0,2.53-0.17,3.41-0.52c0.87-0.35,1.51-0.95,1.92-1.79
				c0.41-0.84,0.61-2.02,0.61-3.54c0-2.07-0.38-3.56-1.14-4.48c-0.76-0.92-2.26-1.38-4.5-1.38h-2.18V380.74z"/>
			<path class="st4" d="M86.62,400.88V365.5h13.72v3.67h-8.78v11.71h7.12v3.49h-7.12v12.97h8.87v3.54H86.62z"/>
			<path class="st4" d="M113.27,401.27c-2.5,0-4.45-0.52-5.83-1.57c-1.38-1.05-2.34-2.46-2.88-4.24c-0.54-1.78-0.81-3.76-0.81-5.94
				v-12.49c0-2.39,0.27-4.47,0.81-6.25c0.54-1.78,1.5-3.15,2.88-4.13c1.38-0.98,3.33-1.46,5.83-1.46c2.21,0,3.97,0.41,5.26,1.22
				c1.3,0.82,2.23,1.98,2.8,3.49c0.57,1.51,0.85,3.33,0.85,5.46v2.79h-4.67v-2.49c0-1.31-0.07-2.47-0.2-3.47
				c-0.13-1-0.49-1.78-1.07-2.34c-0.58-0.55-1.56-0.83-2.93-0.83c-1.4,0-2.42,0.3-3.06,0.9c-0.64,0.6-1.06,1.44-1.24,2.53
				c-0.19,1.09-0.28,2.37-0.28,3.82v14.02c0,1.78,0.15,3.18,0.44,4.22c0.29,1.03,0.77,1.77,1.44,2.21c0.67,0.44,1.57,0.66,2.71,0.66
				c1.34,0,2.3-0.3,2.88-0.9c0.58-0.6,0.95-1.42,1.09-2.47c0.15-1.05,0.22-2.27,0.22-3.67v-2.62h4.67v2.62
				c0,2.16-0.26,4.06-0.79,5.7c-0.52,1.65-1.43,2.93-2.71,3.84C117.41,400.81,115.6,401.27,113.27,401.27z"/>
			<path class="st4" d="M135.94,401.27c-2.39,0-4.3-0.47-5.72-1.4c-1.43-0.93-2.45-2.26-3.06-4c-0.61-1.73-0.92-3.76-0.92-6.09
				v-13.41c0-2.33,0.31-4.33,0.94-6.01c0.63-1.67,1.65-2.96,3.06-3.84c1.41-0.89,3.31-1.33,5.7-1.33c2.39,0,4.28,0.45,5.68,1.35
				c1.4,0.9,2.41,2.18,3.04,3.84c0.63,1.66,0.94,3.66,0.94,5.98v13.46c0,2.3-0.31,4.31-0.94,6.03c-0.63,1.72-1.64,3.05-3.04,4
				C140.23,400.8,138.33,401.27,135.94,401.27z M135.94,397.38c1.31,0,2.3-0.27,2.97-0.81c0.67-0.54,1.12-1.3,1.35-2.27
				c0.23-0.98,0.35-2.12,0.35-3.43v-15.51c0-1.31-0.12-2.44-0.35-3.39c-0.23-0.95-0.68-1.67-1.35-2.18
				c-0.67-0.51-1.66-0.76-2.97-0.76s-2.31,0.26-2.99,0.76c-0.68,0.51-1.14,1.24-1.38,2.18c-0.23,0.95-0.35,2.08-0.35,3.39v15.51
				c0,1.31,0.12,2.45,0.35,3.43c0.23,0.98,0.69,1.73,1.38,2.27C133.64,397.12,134.63,397.38,135.94,397.38z"/>
			<path class="st4" d="M150.45,400.88V365.5h7.12c2.36,0,4.31,0.31,5.85,0.94c1.54,0.63,2.69,1.63,3.43,3.01
				c0.74,1.38,1.11,3.2,1.11,5.44c0,1.37-0.15,2.61-0.44,3.73c-0.29,1.12-0.76,2.07-1.4,2.84c-0.64,0.77-1.49,1.33-2.53,1.68
				l5.02,17.74h-4.76l-4.63-16.6h-3.84v16.6H150.45z M155.38,380.74h1.88c1.4,0,2.53-0.17,3.41-0.52c0.87-0.35,1.51-0.95,1.92-1.79
				c0.41-0.84,0.61-2.02,0.61-3.54c0-2.07-0.38-3.56-1.14-4.48c-0.76-0.92-2.26-1.38-4.5-1.38h-2.18V380.74z"/>
			<path class="st4" d="M173.12,400.88V365.5h7.69c2.62,0,4.7,0.4,6.22,1.2c1.53,0.8,2.62,2,3.28,3.6s0.98,3.6,0.98,5.98v13.02
				c0,2.5-0.33,4.62-0.98,6.33c-0.66,1.72-1.72,3.02-3.19,3.91c-1.47,0.89-3.44,1.33-5.92,1.33H173.12z M178.05,397.34h2.8
				c1.81,0,3.09-0.35,3.84-1.05c0.76-0.7,1.22-1.72,1.38-3.06c0.16-1.34,0.24-2.96,0.24-4.85V376.9c0-1.83-0.12-3.32-0.35-4.46
				c-0.23-1.14-0.74-1.97-1.53-2.49c-0.79-0.52-2.02-0.79-3.71-0.79h-2.66V397.34z"/>
			<path d="M214.49,401.27c-2.04,0-3.73-0.44-5.09-1.31c-1.35-0.87-2.38-2.08-3.08-3.63c-0.7-1.54-1.11-3.33-1.22-5.37l4.37-1.18
				c0.09,1.25,0.28,2.46,0.59,3.63s0.81,2.12,1.51,2.86c0.7,0.74,1.67,1.11,2.93,1.11c1.28,0,2.25-0.36,2.9-1.07
				s0.98-1.74,0.98-3.08c0-1.6-0.36-2.89-1.09-3.87c-0.73-0.98-1.65-1.96-2.75-2.95l-5.94-5.24c-1.17-1.02-2.02-2.13-2.58-3.34
				c-0.55-1.21-0.83-2.7-0.83-4.48c0-2.59,0.74-4.6,2.23-6.03c1.48-1.43,3.51-2.14,6.07-2.14c1.4,0,2.63,0.18,3.69,0.55
				c1.06,0.36,1.95,0.92,2.66,1.68c0.71,0.76,1.28,1.71,1.7,2.86c0.42,1.15,0.71,2.5,0.85,4.04l-4.19,1.14
				c-0.09-1.16-0.26-2.23-0.52-3.21c-0.26-0.98-0.72-1.76-1.38-2.36s-1.59-0.9-2.82-0.9s-2.18,0.33-2.86,0.98
				c-0.68,0.66-1.03,1.62-1.03,2.91c0,1.08,0.18,1.97,0.55,2.66c0.36,0.7,0.95,1.41,1.77,2.14l5.98,5.24
				c1.34,1.17,2.52,2.56,3.54,4.17c1.02,1.62,1.53,3.53,1.53,5.74c0,1.75-0.36,3.25-1.09,4.52c-0.73,1.27-1.73,2.24-2.99,2.91
				C217.61,400.94,216.15,401.27,214.49,401.27z"/>
			<path d="M230.69,400.88v-31.71h-5.98v-3.67h16.73v3.67h-5.81v31.71H230.69z"/>
			<path d="M253.89,401.27c-2.39,0-4.3-0.47-5.72-1.4c-1.43-0.93-2.45-2.26-3.06-4c-0.61-1.73-0.92-3.76-0.92-6.09v-13.41
				c0-2.33,0.31-4.33,0.94-6.01c0.63-1.67,1.65-2.96,3.06-3.84c1.41-0.89,3.31-1.33,5.7-1.33c2.39,0,4.28,0.45,5.68,1.35
				c1.4,0.9,2.41,2.18,3.04,3.84c0.63,1.66,0.94,3.66,0.94,5.98v13.46c0,2.3-0.31,4.31-0.94,6.03c-0.63,1.72-1.64,3.05-3.04,4
				C258.17,400.8,256.27,401.27,253.89,401.27z M253.89,397.38c1.31,0,2.3-0.27,2.97-0.81c0.67-0.54,1.12-1.3,1.35-2.27
				c0.23-0.98,0.35-2.12,0.35-3.43v-15.51c0-1.31-0.12-2.44-0.35-3.39c-0.23-0.95-0.68-1.67-1.35-2.18
				c-0.67-0.51-1.66-0.76-2.97-0.76s-2.31,0.26-2.99,0.76c-0.68,0.51-1.14,1.24-1.38,2.18c-0.23,0.95-0.35,2.08-0.35,3.39v15.51
				c0,1.31,0.12,2.45,0.35,3.43c0.23,0.98,0.69,1.73,1.38,2.27C251.58,397.12,252.58,397.38,253.89,397.38z"/>
			<path d="M268.39,400.88V365.5h7.12c2.36,0,4.31,0.31,5.85,0.94c1.54,0.63,2.69,1.63,3.43,3.01c0.74,1.38,1.11,3.2,1.11,5.44
				c0,1.37-0.15,2.61-0.44,3.73c-0.29,1.12-0.76,2.07-1.4,2.84c-0.64,0.77-1.49,1.33-2.53,1.68l5.02,17.74h-4.76l-4.63-16.6h-3.84
				v16.6H268.39z M273.33,380.74h1.88c1.4,0,2.53-0.17,3.41-0.52c0.87-0.35,1.51-0.95,1.92-1.79c0.41-0.84,0.61-2.02,0.61-3.54
				c0-2.07-0.38-3.56-1.14-4.48c-0.76-0.92-2.26-1.38-4.5-1.38h-2.18V380.74z"/>
			<path d="M291.06,400.88V365.5h13.72v3.67H296v11.71h7.12v3.49H296v12.97h8.87v3.54H291.06z"/>
		</g>
	</g>
</g>
</svg>
