<?xml version="1.0" encoding="utf-8"?>
<!-- Generator: Adobe Illustrator 23.0.4, SVG Export Plug-In . SVG Version: 6.00 Build 0)  -->
<svg version="1.1" id="Calque_1" xmlns="http://www.w3.org/2000/svg" xmlns:xlink="http://www.w3.org/1999/xlink" x="0px" y="0px"
	 viewBox="0 0 595.28 841.89" style="enable-background:new 0 0 595.28 841.89;" xml:space="preserve">
<style type="text/css">
	.st0{fill:#FCED5F;}
	.st1{fill:none;}
	.st2{fill:none;stroke:#FCED5F;stroke-width:0.9076;}
	.st3{enable-background:new    ;}
	.st4{fill:#FFFFFF;}
	.st5{fill:#010202;}
</style>
<g id="Groupe_6" transform="translate(-149 -2614)">
	<circle id="Ellipse_4" class="st0" cx="595.82" cy="3044.47" r="112.79"/>
	<g id="Ellipse_6" transform="translate(1193.113 2914.113)">
		<circle class="st1" cx="-551.23" cy="206.37" r="52.61"/>
		<circle class="st2" cx="-551.23" cy="206.37" r="52.16"/>
	</g>
</g>
<g>
	<g class="st3">
		<path class="st4" d="M52.99,477.46v-73.52h15.97c5.45,0,9.76,0.83,12.93,2.5c3.18,1.67,5.45,4.16,6.81,7.49
			c1.36,3.33,2.04,7.47,2.04,12.43v27.05c0,5.21-0.68,9.59-2.04,13.16c-1.36,3.57-3.57,6.28-6.63,8.12
			c-3.06,1.85-7.16,2.77-12.3,2.77H52.99z M63.24,470.11h5.81c3.75,0,6.41-0.73,7.99-2.18c1.57-1.45,2.53-3.57,2.86-6.35
			c0.33-2.78,0.5-6.14,0.5-10.08v-23.87c0-3.81-0.24-6.9-0.73-9.26c-0.49-2.36-1.54-4.08-3.18-5.17c-1.63-1.09-4.21-1.63-7.71-1.63
			h-5.54V470.11z"/>
		<path class="st4" d="M101.36,477.46v-73.52h10.07v73.52H101.36z"/>
		<path class="st4" d="M140.66,478.27c-4.24,0-7.76-0.91-10.57-2.72s-4.95-4.33-6.4-7.53c-1.45-3.21-2.3-6.93-2.54-11.16l9.08-2.45
			c0.18,2.6,0.59,5.11,1.23,7.53c0.64,2.42,1.68,4.4,3.13,5.95s3.48,2.31,6.08,2.31c2.66,0,4.67-0.74,6.04-2.22
			c1.36-1.48,2.04-3.62,2.04-6.4c0-3.33-0.76-6-2.27-8.03c-1.51-2.03-3.42-4.07-5.72-6.13l-12.34-10.89
			c-2.42-2.12-4.21-4.43-5.35-6.94c-1.15-2.51-1.72-5.61-1.72-9.3c0-5.38,1.54-9.56,4.63-12.52c3.09-2.96,7.29-4.45,12.62-4.45
			c2.9,0,5.46,0.38,7.67,1.13c2.21,0.76,4.05,1.92,5.54,3.49c1.48,1.57,2.66,3.56,3.54,5.94c0.88,2.39,1.47,5.19,1.77,8.4
			l-8.71,2.36c-0.18-2.42-0.54-4.64-1.09-6.67c-0.54-2.03-1.5-3.66-2.86-4.9c-1.36-1.24-3.31-1.86-5.85-1.86
			c-2.54,0-4.52,0.68-5.94,2.04c-1.42,1.36-2.13,3.37-2.13,6.04c0,2.24,0.38,4.08,1.13,5.54c0.76,1.45,1.98,2.94,3.68,4.45
			l12.43,10.89c2.78,2.42,5.23,5.31,7.35,8.67c2.12,3.36,3.18,7.34,3.18,11.93c0,3.63-0.76,6.76-2.27,9.39
			c-1.51,2.63-3.58,4.64-6.22,6.04C147.15,477.58,144.11,478.27,140.66,478.27z"/>
		<path class="st4" d="M184.68,478.27c-5.2,0-9.24-1.09-12.12-3.27c-2.87-2.18-4.87-5.11-5.99-8.8c-1.12-3.69-1.68-7.81-1.68-12.34
			V427.9c0-4.96,0.56-9.29,1.68-12.98c1.12-3.69,3.12-6.55,5.99-8.58c2.87-2.03,6.91-3.04,12.12-3.04c4.6,0,8.24,0.85,10.94,2.54
			c2.69,1.69,4.63,4.12,5.81,7.26c1.18,3.15,1.77,6.93,1.77,11.35v5.81h-9.71v-5.17c0-2.72-0.14-5.13-0.41-7.22
			c-0.27-2.09-1.01-3.71-2.22-4.86c-1.21-1.15-3.24-1.72-6.08-1.72c-2.9,0-5.02,0.62-6.35,1.86c-1.33,1.24-2.19,3-2.59,5.26
			c-0.39,2.27-0.59,4.92-0.59,7.94v29.13c0,3.69,0.3,6.61,0.91,8.76c0.6,2.15,1.6,3.68,3,4.58c1.39,0.91,3.27,1.36,5.63,1.36
			c2.78,0,4.78-0.62,5.99-1.86c1.21-1.24,1.97-2.95,2.27-5.13c0.3-2.18,0.45-4.72,0.45-7.62v-5.45h9.71v5.45
			c0,4.48-0.54,8.43-1.63,11.84c-1.09,3.42-2.97,6.08-5.63,7.99C193.27,477.32,189.52,478.27,184.68,478.27z"/>
		<path class="st4" d="M229.79,477.46l15.61-73.52h9.89l15.7,73.52h-9.71l-3.36-18.52h-14.98l-3.54,18.52H229.79z M244.31,451.59
			h12.25l-6.17-33.13L244.31,451.59z"/>
		<path class="st4" d="M299.22,477.46v-73.52h16.88c3.33,0,6.22,0.36,8.67,1.09c2.45,0.73,4.49,1.85,6.13,3.36
			c1.63,1.51,2.84,3.43,3.63,5.76c0.79,2.33,1.18,5.07,1.18,8.21c0,3.03-0.38,5.64-1.13,7.85c-0.76,2.21-1.91,3.95-3.45,5.22
			s-3.53,2.09-5.94,2.45c2.96,0.67,5.35,1.8,7.17,3.4c1.82,1.6,3.16,3.66,4.04,6.17c0.88,2.51,1.32,5.52,1.32,9.03
			c0,3.15-0.36,6.02-1.09,8.62c-0.73,2.6-1.86,4.81-3.4,6.63s-3.51,3.22-5.9,4.22c-2.39,1-5.22,1.5-8.49,1.5H299.22z M309.47,434.62
			h6.08c2.9,0,5.17-0.41,6.81-1.23c1.63-0.82,2.78-2.13,3.45-3.95c0.67-1.82,1-4.17,1-7.08c0-3.39-0.51-5.84-1.54-7.35
			c-1.03-1.51-2.63-2.46-4.81-2.86c-2.18-0.39-5.02-0.59-8.53-0.59h-2.45V434.62z M309.47,470.11h6.9c4.6,0,7.67-1.07,9.21-3.22
			c1.54-2.15,2.31-5.61,2.31-10.39c0-3.09-0.41-5.67-1.23-7.76c-0.82-2.09-2.12-3.66-3.9-4.72c-1.79-1.06-4.19-1.59-7.22-1.59h-6.08
			V470.11z"/>
	</g>
</g>
<g>
	<g class="st3">
		<path class="st5" d="M346.77,477.46v-73.52h14.79c4.9,0,8.95,0.65,12.16,1.95c3.21,1.3,5.58,3.39,7.12,6.26
			c1.54,2.87,2.31,6.64,2.31,11.3c0,2.84-0.3,5.43-0.91,7.76c-0.61,2.33-1.57,4.3-2.9,5.9c-1.33,1.6-3.09,2.77-5.26,3.49
			l10.44,36.85h-9.89l-9.62-34.49h-7.99v34.49H346.77z M357.03,435.62h3.9c2.9,0,5.26-0.36,7.08-1.09c1.82-0.73,3.15-1.97,3.99-3.72
			c0.85-1.75,1.27-4.2,1.27-7.35c0-4.3-0.79-7.4-2.36-9.3c-1.57-1.91-4.69-2.86-9.35-2.86h-4.54V435.62z"/>
		<path class="st5" d="M389.88,477.46l15.61-73.52h9.89l15.7,73.52h-9.71l-3.36-18.52h-14.98l-3.54,18.52H389.88z M404.41,451.59
			h12.25l-6.17-33.13L404.41,451.59z"/>
		<path class="st5" d="M456.96,478.27c-5.21,0-9.24-1.09-12.12-3.27c-2.87-2.18-4.87-5.11-5.99-8.8c-1.12-3.69-1.68-7.81-1.68-12.34
			V427.9c0-4.96,0.56-9.29,1.68-12.98c1.12-3.69,3.12-6.55,5.99-8.58c2.87-2.03,6.91-3.04,12.12-3.04c4.6,0,8.24,0.85,10.94,2.54
			c2.69,1.69,4.63,4.12,5.81,7.26c1.18,3.15,1.77,6.93,1.77,11.35v5.81h-9.71v-5.17c0-2.72-0.14-5.13-0.41-7.22
			c-0.27-2.09-1.01-3.71-2.22-4.86c-1.21-1.15-3.24-1.72-6.08-1.72c-2.9,0-5.02,0.62-6.35,1.86c-1.33,1.24-2.19,3-2.59,5.26
			c-0.39,2.27-0.59,4.92-0.59,7.94v29.13c0,3.69,0.3,6.61,0.91,8.76c0.6,2.15,1.6,3.68,3,4.58c1.39,0.91,3.27,1.36,5.63,1.36
			c2.78,0,4.78-0.62,5.99-1.86c1.21-1.24,1.96-2.95,2.27-5.13c0.3-2.18,0.45-4.72,0.45-7.62v-5.45h9.71v5.45
			c0,4.48-0.54,8.43-1.63,11.84c-1.09,3.42-2.96,6.08-5.63,7.99C465.55,477.32,461.8,478.27,456.96,478.27z"/>
	</g>
</g>
</svg>
