<svg xmlns="http://www.w3.org/2000/svg" viewBox="0 0 41.82 41.87"><defs><style>.cls-1{fill:#fced5f;}</style></defs><g id="Calque_2" data-name="Calque 2"><g id="Calque_1-2" data-name="Calque 1"><path class="cls-1" d="M41.78,21c0,3.17.1,6.34,0,9.5C41.51,37,36.94,41.61,30.42,41.76s-12.74.15-19.1,0A11.13,11.13,0,0,1,.11,30.55q-.22-9.6,0-19.2A11.13,11.13,0,0,1,11.39.11C17.72,0,24.07,0,30.4.11A11.21,11.21,0,0,1,41.77,11.37C41.88,14.56,41.78,17.77,41.78,21ZM38.29,21h-.18c0-2.89,0-5.77,0-8.66,0-.5-.1-1-.15-1.51A7.18,7.18,0,0,0,31.81,4.1a31.61,31.61,0,0,0-5.67-.38c-5.07,0-10.14,0-15.21.23A7,7,0,0,0,4.1,10a29.1,29.1,0,0,0-.39,5.2c0,5.23,0,10.46.22,15.69A7,7,0,0,0,11,37.92c6.68.21,13.37.19,20,0A7.08,7.08,0,0,0,37.92,31C38.16,27.7,38.17,24.36,38.29,21Z"/><path class="cls-1" d="M21,10.15A10.79,10.79,0,1,1,10.15,20.71,10.71,10.71,0,0,1,21,10.15ZM13.87,21a7,7,0,1,0,7-7.06A7.07,7.07,0,0,0,13.87,21Z"/></g></g></svg>