<?xml version="1.0" encoding="utf-8"?>
<!-- Generator: Adobe Illustrator 23.0.4, SVG Export Plug-In . SVG Version: 6.00 Build 0)  -->
<svg version="1.1" id="Calque_1" xmlns="http://www.w3.org/2000/svg" xmlns:xlink="http://www.w3.org/1999/xlink" x="0px" y="0px"
	 viewBox="0 0 595.28 841.89" style="enable-background:new 0 0 595.28 841.89;" xml:space="preserve">
<style type="text/css">
	.st0{fill:#FCED5F;}
</style>
<path class="st0" d="M317.8,421.61c0,3.17,0.1,6.34-0.02,9.5c-0.25,6.52-4.82,11.14-11.34,11.29c-6.37,0.15-12.74,0.15-19.1-0.01
	c-6.41-0.16-11.06-4.8-11.21-11.2c-0.15-6.4-0.15-12.8,0-19.2c0.16-6.47,4.82-11.1,11.28-11.24c6.33-0.14,12.68-0.14,19.01,0
	c6.54,0.14,11.13,4.75,11.37,11.26C317.9,415.2,317.8,418.41,317.8,421.61z M314.31,421.68c-0.06,0-0.12,0-0.18,0
	c0-2.89,0.01-5.77-0.01-8.66c0-0.5-0.1-1.01-0.15-1.51c-0.37-3.61-2.55-6.13-6.14-6.77c-1.86-0.33-3.78-0.39-5.67-0.38
	c-5.07,0.01-10.14,0.02-15.21,0.23c-3.64,0.15-6.17,2.47-6.83,6.03c-0.31,1.7-0.39,3.46-0.39,5.2c0.01,5.23-0.02,10.46,0.22,15.69
	c0.19,4.09,2.95,6.92,7.08,7.05c6.68,0.21,13.37,0.19,20.05-0.01c3.83-0.11,6.58-3.04,6.86-6.89
	C314.18,428.34,314.19,425,314.31,421.68z"/>
<path class="st0" d="M297,410.79c6.04,0.02,10.75,4.83,10.72,10.96c-0.03,5.86-4.86,10.61-10.79,10.61
	c-6.09-0.01-10.78-4.81-10.76-11.01C286.19,415.51,291.04,410.77,297,410.79z M289.89,421.6c0.12,4,3.26,7.1,7.11,7.03
	c3.88-0.07,7.07-3.3,6.97-7.07c-0.1-3.98-3.26-7.1-7.11-7.02C292.97,414.61,289.78,417.84,289.89,421.6z"/>
<path class="st0" d="M308.17,412.82c-1.39-0.01-2.47-1.08-2.48-2.47c-0.01-1.41,1.13-2.55,2.53-2.54c1.35,0.02,2.48,1.14,2.5,2.49
	C310.74,411.69,309.58,412.83,308.17,412.82z"/>
</svg>
