<svg xmlns="http://www.w3.org/2000/svg" viewBox="0 0 506.62 241.42"><defs><style>.cls-1{fill:#fced5f;}.cls-2,.cls-3{fill:none;}.cls-3{stroke:#fced5f;stroke-width:0.91px;}.cls-4{isolation:isolate;}.cls-5{fill:#fff;}.cls-6{fill:#010202;}</style></defs><g id="Calque_2" data-name="Calque 2"><g id="Calque_1-2" data-name="Calque 1"><g id="Groupe_6" data-name="Groupe 6"><circle id="Ellipse_4" data-name="Ellipse 4" class="cls-1" cx="393.83" cy="112.79" r="112.79"/><g id="Ellipse_6" data-name="Ellipse 6"><circle class="cls-2" cx="439.89" cy="188.8" r="52.61"/><circle class="cls-3" cx="439.89" cy="188.8" r="52.16" transform="translate(-4.66 366.35) rotate(-45)"/></g></g><g class="cls-4"><path class="cls-5" d="M0,159.78V86.26H16q8.18,0,12.93,2.5a14.33,14.33,0,0,1,6.81,7.49,33,33,0,0,1,2,12.43v27a37.13,37.13,0,0,1-2,13.16A15.64,15.64,0,0,1,29.08,157q-4.59,2.78-12.3,2.77Zm10.25-7.35h5.81q5.63,0,8-2.18a9.9,9.9,0,0,0,2.86-6.35,87.16,87.16,0,0,0,.5-10.08V110a47.24,47.24,0,0,0-.73-9.26,7.75,7.75,0,0,0-3.18-5.17c-1.63-1.09-4.21-1.63-7.71-1.63H10.25Z"/><path class="cls-5" d="M48.37,159.78V86.26H58.44v73.52Z"/><path class="cls-5" d="M87.67,160.59a19.15,19.15,0,0,1-10.57-2.72,17.17,17.17,0,0,1-6.4-7.53,31.25,31.25,0,0,1-2.54-11.16l9.08-2.45a40.26,40.26,0,0,0,1.23,7.53,13.61,13.61,0,0,0,3.13,6,7.91,7.91,0,0,0,6.08,2.31,7.82,7.82,0,0,0,6-2.22c1.36-1.48,2-3.62,2-6.4a13.12,13.12,0,0,0-2.27-8,42.06,42.06,0,0,0-5.72-6.13L75.43,118.85a20.65,20.65,0,0,1-5.35-6.94,22.29,22.29,0,0,1-1.72-9.3q0-8.07,4.63-12.52t12.62-4.45a23.86,23.86,0,0,1,7.67,1.13,13.56,13.56,0,0,1,5.54,3.49,17.28,17.28,0,0,1,3.54,5.94,33.37,33.37,0,0,1,1.77,8.4L95.42,107a35.6,35.6,0,0,0-1.09-6.67,9.89,9.89,0,0,0-2.86-4.9,8.39,8.39,0,0,0-5.85-1.86,8.24,8.24,0,0,0-5.94,2q-2.13,2-2.13,6a12.05,12.05,0,0,0,1.13,5.54,16.22,16.22,0,0,0,3.68,4.45l12.43,10.89a39,39,0,0,1,7.35,8.67,21.89,21.89,0,0,1,3.18,11.93,18.55,18.55,0,0,1-2.27,9.39,15.32,15.32,0,0,1-6.22,6A19.63,19.63,0,0,1,87.67,160.59Z"/><path class="cls-5" d="M131.69,160.59q-7.8,0-12.12-3.27a16.87,16.87,0,0,1-6-8.8,42.43,42.43,0,0,1-1.68-12.34v-26a44.89,44.89,0,0,1,1.68-13,15.74,15.74,0,0,1,6-8.58q4.31-3,12.12-3,6.9,0,10.94,2.54a14.21,14.21,0,0,1,5.81,7.26,32.4,32.4,0,0,1,1.77,11.35v5.81H140.5v-5.17a56.93,56.93,0,0,0-.41-7.22,7.84,7.84,0,0,0-2.22-4.86q-1.81-1.72-6.08-1.72t-6.35,1.86a9.12,9.12,0,0,0-2.59,5.26,47.4,47.4,0,0,0-.59,7.94V137.8a33.38,33.38,0,0,0,.91,8.76,7.59,7.59,0,0,0,3,4.58,10.18,10.18,0,0,0,5.63,1.36q4.17,0,6-1.86a8.84,8.84,0,0,0,2.27-5.13,56.6,56.6,0,0,0,.45-7.62v-5.45h9.71v5.45a39,39,0,0,1-1.63,11.84,15.18,15.18,0,0,1-5.63,8Q138.94,160.6,131.69,160.59Z"/><path class="cls-5" d="M176.8,159.78l15.61-73.52h9.89L218,159.78h-9.71l-3.36-18.52H190l-3.54,18.52Zm14.52-25.87h12.25l-6.17-33.13Z"/><path class="cls-5" d="M246.23,159.78V86.26h16.88a30.54,30.54,0,0,1,8.67,1.09,15.36,15.36,0,0,1,6.13,3.36,13.67,13.67,0,0,1,3.63,5.76,25.63,25.63,0,0,1,1.18,8.21,24.46,24.46,0,0,1-1.13,7.85,11.36,11.36,0,0,1-3.45,5.22,11.92,11.92,0,0,1-5.94,2.45,16,16,0,0,1,7.17,3.4,14.34,14.34,0,0,1,4,6.17,27.4,27.4,0,0,1,1.32,9,31.82,31.82,0,0,1-1.09,8.62,17.37,17.37,0,0,1-3.4,6.63,15.31,15.31,0,0,1-5.9,4.22,21.91,21.91,0,0,1-8.49,1.5H246.23Zm10.25-42.84h6.08a15.47,15.47,0,0,0,6.81-1.23,6.9,6.9,0,0,0,3.45-3.95,20.82,20.82,0,0,0,1-7.08q0-5.09-1.54-7.35a7,7,0,0,0-4.81-2.86,50.11,50.11,0,0,0-8.53-.59h-2.45v23.06Zm0,35.49h6.9q6.9,0,9.21-3.22t2.31-10.39a21.33,21.33,0,0,0-1.23-7.76,9.21,9.21,0,0,0-3.9-4.72,14.1,14.1,0,0,0-7.22-1.59h-6.08v27.68Z"/></g><g class="cls-4"><path class="cls-6" d="M293.78,159.78V86.26h14.79a32.63,32.63,0,0,1,12.16,1.95,13.55,13.55,0,0,1,7.12,6.26q2.31,4.31,2.31,11.3a30.66,30.66,0,0,1-.91,7.76,15,15,0,0,1-2.9,5.9,11.31,11.31,0,0,1-5.26,3.49l10.44,36.85h-9.89L312,125.28h-8v34.49H293.78ZM304,117.94h3.9a19.29,19.29,0,0,0,7.08-1.09,7.28,7.28,0,0,0,4-3.72,17.18,17.18,0,0,0,1.27-7.35q0-6.45-2.36-9.3t-9.35-2.86H304v24.32Z"/><path class="cls-6" d="M336.89,159.78,352.5,86.26h9.89l15.7,73.52h-9.71L365,141.26H350l-3.54,18.52Zm14.53-25.87h12.25l-6.17-33.13Z"/><path class="cls-6" d="M404,160.59c-5.21,0-9.24-1.09-12.12-3.27a16.87,16.87,0,0,1-6-8.8,42.43,42.43,0,0,1-1.68-12.34v-26a44.89,44.89,0,0,1,1.68-13,15.74,15.74,0,0,1,6-8.58q4.31-3,12.12-3,6.9,0,10.94,2.54a14.21,14.21,0,0,1,5.81,7.26,32.4,32.4,0,0,1,1.77,11.35v5.81h-9.71v-5.17a56.93,56.93,0,0,0-.41-7.22,7.84,7.84,0,0,0-2.22-4.86q-1.81-1.72-6.08-1.72t-6.35,1.86a9.12,9.12,0,0,0-2.59,5.26,47.4,47.4,0,0,0-.59,7.94V137.8a33.38,33.38,0,0,0,.91,8.76,7.59,7.59,0,0,0,3,4.58,10.18,10.18,0,0,0,5.63,1.36q4.17,0,6-1.86a8.91,8.91,0,0,0,2.27-5.13,56.6,56.6,0,0,0,.45-7.62v-5.45h9.71v5.45a39,39,0,0,1-1.63,11.84,15.13,15.13,0,0,1-5.63,8Q411.22,160.6,404,160.59Z"/></g></g></g></svg>