<?xml version="1.0" encoding="utf-8"?>
<!-- Generator: Adobe Illustrator 23.0.4, SVG Export Plug-In . SVG Version: 6.00 Build 0)  -->
<svg version="1.1" id="Calque_1" xmlns="http://www.w3.org/2000/svg" xmlns:xlink="http://www.w3.org/1999/xlink" x="0px" y="0px"
	 viewBox="0 0 595.28 841.89" style="enable-background:new 0 0 595.28 841.89;" xml:space="preserve">
<style type="text/css">
	.st0{fill:#FCED5F;}
</style>
<path class="st0" d="M273.83,421.54c0.01-12.7,10.41-23.07,23.12-23.06c12.71,0.01,23.08,10.4,23.07,23.11
	c-0.01,12.73-10.42,23.12-23.15,23.09C284.16,444.65,273.82,434.26,273.83,421.54z M311.39,419.43c1.13,0.01,2.03-0.68,2.34-1.57
	c0.3-0.87,0.05-1.85-0.68-2.37c-0.4-0.29-0.87-0.49-1.32-0.7c-3.43-1.64-7.04-2.75-10.78-3.44c-3.49-0.63-7.01-0.84-10.54-0.55
	c-2.49,0.2-4.95,0.68-7.41,1.13c-1.33,0.24-2.04,1.54-1.73,2.84c0.27,1.15,1.34,1.73,2.68,1.48c1.55-0.29,3.1-0.66,4.67-0.84
	c7.39-0.83,14.49,0.23,21.25,3.39C310.45,419.06,311.04,419.28,311.39,419.43z M282.54,423.52c-0.02,1.36,1.05,2.2,2.44,1.85
	c2.6-0.65,5.22-1.04,7.9-1.08c4.01-0.05,7.9,0.59,11.65,2.03c1.21,0.47,2.37,1.07,3.58,1.55c0.35,0.14,0.9,0.22,1.18,0.05
	c0.75-0.46,1.24-1.2,1.39-2.08c0.11-0.67-0.06-1.29-0.67-1.69c-0.4-0.26-0.83-0.48-1.26-0.69c-2.84-1.4-5.83-2.36-8.93-2.93
	c-5.11-0.94-10.21-0.76-15.26,0.48C283.23,421.33,282.56,422.14,282.54,423.52z M307.76,434.07c-0.02-0.9-0.21-1.7-1.1-2.17
	c-3.19-1.67-6.57-2.72-10.15-3.14c-3.6-0.42-7.15-0.12-10.65,0.82c-1.49,0.4-1.78,0.67-2.01,2.13c-0.24,1.49,0.73,2.32,2.2,1.97
	c1.36-0.32,2.73-0.63,4.11-0.83c4.38-0.64,8.62,0,12.7,1.67c0.76,0.31,1.49,0.68,2.22,1.05
	C306.59,436.33,307.78,435.67,307.76,434.07z"/>
</svg>
